<?xml version="1.0" encoding="utf-8"?>
<!-- Generator: Adobe Illustrator 25.2.3, SVG Export Plug-In . SVG Version: 6.00 Build 0)  -->
<svg version="1.1" id="Layer_1" xmlns="http://www.w3.org/2000/svg" xmlns:xlink="http://www.w3.org/1999/xlink" x="0px" y="0px"
	 viewBox="0 0 1085.7 283" style="enable-background:new 0 0 1085.7 283;" xml:space="preserve">
<style type="text/css">
	.st0{fill:none;}
	.st1{fill:url(#SVGID_1_);}
	.st2{fill:url(#SVGID_2_);}
	.st3{fill:url(#SVGID_3_);}
	.st4{fill:url(#SVGID_4_);}
	.st5{fill:url(#SVGID_5_);}
	.st6{fill:url(#SVGID_6_);}
	.st7{fill:url(#SVGID_7_);}
	.st8{fill:url(#SVGID_8_);}
	.st9{fill:url(#SVGID_9_);}
	.st10{fill:url(#SVGID_10_);}
	.st11{fill:url(#SVGID_11_);}
	.st12{fill:url(#SVGID_12_);}
	.st13{fill:url(#SVGID_13_);}
	.st14{fill:url(#SVGID_14_);}
	.st15{fill:url(#SVGID_15_);}
	.st16{fill:url(#SVGID_16_);}
	.st17{fill:url(#SVGID_17_);}
</style>
<g id="Layer_2_1_">
	<g id="Layer_1-2">
		<rect class="st0" width="1085.7" height="283"/>
		
			<linearGradient id="SVGID_1_" gradientUnits="userSpaceOnUse" x1="23.8052" y1="247.4226" x2="75.1391" y2="400.4041" gradientTransform="matrix(1 0 0 1 0 -185.9999)">
			<stop  offset="0" style="stop-color:#5DC9BA"/>
			<stop  offset="1" style="stop-color:#239FA7"/>
		</linearGradient>
		<path class="st1" d="M77.7,156l5.2,55.8l-29.1,7.5L4.8,67.8h40.9c2,0,3.7,1.3,4.3,3.2L77.7,156z"/>
		
			<linearGradient id="SVGID_2_" gradientUnits="userSpaceOnUse" x1="129.0921" y1="273.186" x2="170.4621" y2="387.2661" gradientTransform="matrix(1 0 0 1 0 -185.9999)">
			<stop  offset="0" style="stop-color:#239FA7"/>
			<stop  offset="1" style="stop-color:#5DC9BA"/>
		</linearGradient>
		<polygon class="st2" points="173.9,150.4 176.7,157.7 179.5,179 156.6,218.7 152,219.4 122.7,129.4 110.3,77.8 147.1,67.8 		"/>
		
			<linearGradient id="SVGID_3_" gradientUnits="userSpaceOnUse" x1="169.4696" y1="411.6254" x2="228.8996" y2="244.8554" gradientTransform="matrix(1 0 0 1 0 -185.9999)">
			<stop  offset="0" style="stop-color:#217DA7"/>
			<stop  offset="1" style="stop-color:#218AA7"/>
		</linearGradient>
		<path class="st3" d="M245.4,67.8l-48.1,148.4c-0.6,1.9-2.3,3.2-4.3,3.2h-41l21.5-66.3l0.6-1.9l0,0l26-80.2
			c0.6-1.9,2.4-3.2,4.4-3.2H245.4z"/>
		
			<linearGradient id="SVGID_4_" gradientUnits="userSpaceOnUse" x1="130.879" y1="243.8228" x2="69.919" y2="415.5828" gradientTransform="matrix(1 0 0 1 0 -185.9999)">
			<stop  offset="0" style="stop-color:#217DA7"/>
			<stop  offset="1" style="stop-color:#218AA7"/>
		</linearGradient>
		<path class="st4" d="M147.1,67.8l-21.7,67.1l-0.4,1.2l-26,80.2c-0.6,1.9-2.4,3.2-4.3,3.2H53.9l-0.1-0.2l21.4-66.1l0.7-2.2
			l25.9-79.9c0.6-1.9,2.4-3.2,4.3-3.2L147.1,67.8z"/>
		
			<linearGradient id="SVGID_5_" gradientUnits="userSpaceOnUse" x1="395.2407" y1="282.5592" x2="411.0407" y2="298.3592" gradientTransform="matrix(1 0 0 1 0 -185.9999)">
			<stop  offset="0" style="stop-color:#FFFFFF"/>
			<stop  offset="0.99" style="stop-color:#F2F2F2"/>
		</linearGradient>
		<path class="st5" d="M411.4,97.2h-15.6c-1.6,0-2.9,1.3-2.9,2.9v10.8h18.4c1.6,0,2.9-1.3,2.9-2.9v-8
			C414.2,98.4,412.9,97.2,411.4,97.2z"/>
		
			<linearGradient id="SVGID_6_" gradientUnits="userSpaceOnUse" x1="283.925" y1="284.0749" x2="369.015" y2="369.1649" gradientTransform="matrix(1 0 0 1 0 -185.9999)">
			<stop  offset="0" style="stop-color:#FFFFFF"/>
			<stop  offset="0.99" style="stop-color:#F2F2F2"/>
		</linearGradient>
		<path class="st6" d="M266.7,115.3h21.2l14.5,47.7l15.1-47.7h17.9l15.1,47.7l14.5-47.7h21.2l-26.1,76.6h-19.4l-14.2-48.2
			l-14.4,48.2h-19.4L266.7,115.3z"/>
		
			<linearGradient id="SVGID_7_" gradientUnits="userSpaceOnUse" x1="378.35" y1="315.05" x2="427.45" y2="364.1499" gradientTransform="matrix(1 0 0 1 0 -185.9999)">
			<stop  offset="0" style="stop-color:#FFFFFF"/>
			<stop  offset="0.99" style="stop-color:#F2F2F2"/>
		</linearGradient>
		<path class="st7" d="M392.1,115.3h21.6v76.6h-21.6V115.3z"/>
		
			<linearGradient id="SVGID_8_" gradientUnits="userSpaceOnUse" x1="427.0751" y1="309.8246" x2="494.8702" y2="377.6298" gradientTransform="matrix(1 0 0 1 0 -185.9999)">
			<stop  offset="0" style="stop-color:#FFFFFF"/>
			<stop  offset="0.99" style="stop-color:#F2F2F2"/>
		</linearGradient>
		<path class="st8" d="M494.6,146.1v45.8h-20.9v-7.7c-5.5,6.2-14.2,9.5-22.5,9.5c-16.3,0-28.9-9.8-28.9-24.5
			c0-15.1,14.1-25.5,31.9-25.5c6.7,0.1,13.3,1.4,19.6,3.9v-1.5c0-8.2-5-15.3-17.6-15.3c-7.1,0-13.8,2.4-19.9,5.5l-7.3-14.4
			c10.8-5.5,21.4-8.4,32-8.4C480.9,113.5,494.6,126.1,494.6,146.1z M473.7,167.7v-7.1c-5.3-1.9-10.8-2.8-16.5-2.8
			c-7.9,0-14.1,4.6-14.1,10.8s5.5,10.1,12.9,10.1C464.3,178.7,472.2,174.9,473.7,167.7L473.7,167.7z"/>
		
			<linearGradient id="SVGID_9_" gradientUnits="userSpaceOnUse" x1="502.015" y1="305.7855" x2="576.9199" y2="380.6804" gradientTransform="matrix(1 0 0 1 0 -185.9999)">
			<stop  offset="0" style="stop-color:#FFFFFF"/>
			<stop  offset="0.99" style="stop-color:#F2F2F2"/>
		</linearGradient>
		<path class="st9" d="M579.7,143.1v48.8h-20.9v-44.2c0-9.5-5.9-16-14.5-16c-9,0-16,6.5-16,14.8l-0.2-0.4v45.8h-21.6v-76.6h21.6v9.6
			c4.6-7,13.2-11.4,23.1-11.4C567.8,113.5,579.7,125.8,579.7,143.1z"/>
		
			<linearGradient id="SVGID_10_" gradientUnits="userSpaceOnUse" x1="598.2964" y1="311.2813" x2="657.006" y2="369.9908" gradientTransform="matrix(1 0 0 1 0 -185.9999)">
			<stop  offset="0" style="stop-color:#FFFFFF"/>
			<stop  offset="0.99" style="stop-color:#F2F2F2"/>
		</linearGradient>
		<path class="st10" d="M646.6,166.5l14.7,13.2c-6.3,7.5-19.2,13.1-30.5,13.8c-22.8,1.4-41.6-14.1-43.1-37.7
			c-1.5-23.1,14.5-40.9,36.8-42.3c24-1.5,39.2,15.8,41,44.6l-55.2,3.5c3,8.1,10.1,13.3,19.1,12.8C635.5,174,642.8,170.7,646.6,166.5
			z M609.7,146.1l34.2-2.2c-2.5-7.4-8.5-11.9-17.2-11.4C618.7,132.9,611.8,138.4,609.7,146.1z"/>
		
			<linearGradient id="SVGID_11_" gradientUnits="userSpaceOnUse" x1="662.4644" y1="296.638" x2="729.1674" y2="363.3311" gradientTransform="matrix(1 0 0 1 0 -185.9999)">
			<stop  offset="0" style="stop-color:#FFFFFF"/>
			<stop  offset="0.99" style="stop-color:#F2F2F2"/>
		</linearGradient>
		<path class="st11" d="M719.5,187c-4.9,4.2-11.2,6.6-17.6,6.7c-13.5,0-23-9.6-23-23.4v-37.5h-10.5v-17.5h10.5V94.2h20.8v21.1h16.6
			v17.5h-16.6v34.1c0,5,3.3,8.6,7.3,8.6c3,0,5.9-1,7.4-2.5L719.5,187z"/>
		
			<linearGradient id="SVGID_12_" gradientUnits="userSpaceOnUse" x1="763.3966" y1="296.4465" x2="1034.9766" y2="568.0266" gradientTransform="matrix(1 0 0 1 0 -185.9999)">
			<stop  offset="0" style="stop-color:#239FA7"/>
			<stop  offset="1" style="stop-color:#5DC9BA"/>
		</linearGradient>
		<path class="st12" d="M759.4,94.9h74.2v19.5h-52.7v20.7h46.5v19.5h-46.5v37.7h-21.4L759.4,94.9L759.4,94.9z"/>
		
			<linearGradient id="SVGID_13_" gradientUnits="userSpaceOnUse" x1="757.773" y1="244.3202" x2="1118.6329" y2="605.1902" gradientTransform="matrix(1 0 0 1 0 -185.9999)">
			<stop  offset="0" style="stop-color:#239FA7"/>
			<stop  offset="1" style="stop-color:#5DC9BA"/>
		</linearGradient>
		<path class="st13" d="M843.9,117.7H865v74.6h-21.1V117.7z"/>
		
			<linearGradient id="SVGID_14_" gradientUnits="userSpaceOnUse" x1="785.673" y1="217.6702" x2="1076.5431" y2="508.5401" gradientTransform="matrix(1 0 0 1 0 -185.9999)">
			<stop  offset="0" style="stop-color:#239FA7"/>
			<stop  offset="1" style="stop-color:#5DC9BA"/>
		</linearGradient>
		<path class="st14" d="M900.5,182.6v9.7h-21.2V90.7h21.2v37.7c5.2-7,12.2-12.1,23.2-12.1c17.4,0,34,13.6,34,38.6v0.3
			c0,24.9-16.3,38.5-34,38.5C912.5,193.7,905.5,188.5,900.5,182.6z M936.5,155.1v-0.3c0-12.4-8.3-20.6-18.2-20.6
			s-18.1,8.2-18.1,20.6v0.3c0,12.4,8.2,20.6,18.1,20.6S936.5,167.7,936.5,155.1L936.5,155.1z"/>
		
			<linearGradient id="SVGID_15_" gradientUnits="userSpaceOnUse" x1="779.0136" y1="129.1195" x2="1132.1637" y2="482.2596" gradientTransform="matrix(1 0 0 1 0 -185.9999)">
			<stop  offset="0" style="stop-color:#239FA7"/>
			<stop  offset="1" style="stop-color:#5DC9BA"/>
		</linearGradient>
		<path class="st15" d="M967.7,117.7h21.2v15c4.3-10.3,11.3-17,23.8-16.4v22.2h-1.1c-14.1,0-22.7,8.5-22.7,26.3v27.5h-21.2V117.7z"
			/>
		
			<linearGradient id="SVGID_16_" gradientUnits="userSpaceOnUse" x1="830.8129" y1="126.8703" x2="1115.9128" y2="411.9703" gradientTransform="matrix(1 0 0 1 0 -185.9999)">
			<stop  offset="0" style="stop-color:#239FA7"/>
			<stop  offset="1" style="stop-color:#5DC9BA"/>
		</linearGradient>
		<path class="st16" d="M1012.4,170.9v-0.3c0-16.3,12.4-23.8,30.1-23.8c6.2-0.1,12.4,0.9,18.2,3v-1.3c0-8.8-5.4-13.6-16-13.6
			c-8.1,0-13.8,1.5-20.6,4l-5.3-16.1c8.2-3.6,16.3-6,29-6c11.6,0,19.9,3.1,25.2,8.3c5.6,5.6,8.1,13.8,8.1,23.8v43.4h-20.5v-8.1
			c-5.2,5.7-12.2,9.5-22.5,9.5C1023.9,193.7,1012.4,185.6,1012.4,170.9z M1060.9,166v-3.7c-4.3-1.9-8.9-2.8-13.5-2.8
			c-9,0-14.6,3.6-14.6,10.3v0.3c0,5.7,4.7,9,11.6,9C1054.2,179.1,1060.9,173.6,1060.9,166L1060.9,166z"/>
		
			<linearGradient id="SVGID_17_" gradientUnits="userSpaceOnUse" x1="798.0963" y1="233.9968" x2="1060.3363" y2="496.2468" gradientTransform="matrix(1 0 0 1 0 -185.9999)">
			<stop  offset="0" style="stop-color:#239FA7"/>
			<stop  offset="1" style="stop-color:#5DC9BA"/>
		</linearGradient>
		<path class="st17" d="M861.9,94.9h-15.2c-1.5,0-2.8,1.6-2.8,3.5v13.3h18c1.5,0,2.8-1.6,2.8-3.5v-9.8
			C864.7,96.5,863.5,94.9,861.9,94.9z"/>
	</g>
</g>
</svg>
